<?xml version="1.0" encoding="utf-8"?>
<!-- Generator: Adobe Illustrator 25.0.0, SVG Export Plug-In . SVG Version: 6.00 Build 0)  -->
<svg version="1.1" id="Layer_1" xmlns="http://www.w3.org/2000/svg" xmlns:xlink="http://www.w3.org/1999/xlink" x="0px" y="0px"
	 viewBox="0 0 700 563" style="enable-background:new 0 0 700 563;" xml:space="preserve">
<style type="text/css">
	.st0{fill:#969696;}
</style>
<path class="st0" d="M350,6.6C198.9,6.6,76.6,129,76.6,280S198.9,553.4,350,553.4S623.4,431.1,623.4,280S501,6.6,350,6.6z
	 M481.4,303c0,12.2-9.5,22.1-21.7,22.1S438,315.1,438,303v-40.2c0-5.8,1.9-10.9,4.9-14.9v-5.8c0-51.5-41.5-85.9-93-85.9
	s-93,34.3-93,85.9v5.8c3.1,3.9,4.9,9.1,4.9,14.9v40.5c0,5.5-1.8,10.3-5,14.1c3.1,39.8,19.6,71.3,55.9,77.9c0.5-4.9,4.7-9,9.7-9h21.8
	c5.5,0,10,4.9,10,10.4v9.7c0,5.5-4.5,10.4-10,10.4h-21.8c-4.7,0-8.8-3.7-9.6-8.2c-41.6-6.2-62.8-40.5-67.8-83.9
	c-1.4,0.2-3,0.4-4.6,0.4c-12.1,0-21.9-10-21.9-22.1v-40.5c0-12.1,10-22.1,22.1-22.1c1.2,0,1.8,0.1,3.6,0.3v-7.4h-0.1
	c4.4-53.2,50.1-90,105.8-90c58.2,0,105.4,39.7,106.1,97.6c1.2-0.2,2.3-0.3,3.5-0.3c12.1,0,21.9,9.8,21.8,22L481.4,303z"/>
</svg>
